<svg width="286" height="357" viewBox="0 0 286 357" fill="none" xmlns="http://www.w3.org/2000/svg">
<path d="M237.366 35L188.497 94.1563C175.087 86.5308 159.045 82.7323 142.589 82.7323C126.012 82.7323 110.445 86.5851 96.9689 94.3305L49.1411 35L49.1068 183.595C48.8665 187.476 49.1068 191.432 49.1068 195.55C49.1068 252.402 72.3357 301.193 105.569 322.194C86.853 298.098 70.6483 271.942 78.1558 246.535C121.173 244.807 125.72 244.582 125.72 244.582L140.916 256.948L159.6 244.582C190.886 244.805 205.652 245.453 205.652 245.453C207.591 261.372 204.819 296.281 178.073 322.471C211.526 301.613 235.216 252.644 235.216 195.553C235.216 191.554 235.041 187.687 235.041 183.912L237.366 35ZM121.525 202.567C117.035 204.364 106.976 210.281 102.306 211.715C97.6324 213.152 91.1688 214.045 88.652 211.715C86.1352 209.385 78.05 201.668 76.4369 199.877C74.8182 198.078 73.74 183.723 83.2609 184.446C92.9592 185.18 119.191 195.93 120.807 196.464C122.426 197.004 126.018 200.771 121.525 202.567ZM207.368 199.877C205.755 201.668 197.664 209.382 195.153 211.715C192.633 214.045 186.175 213.152 181.502 211.715C176.831 210.281 166.773 204.364 162.28 202.567C157.784 200.771 161.382 197.007 162.995 196.464C164.614 195.927 190.846 185.18 200.544 184.446C210.068 183.723 208.989 198.078 207.368 199.877Z" fill="#1A1A1A"/>
</svg>
